<svg xmlns="http://www.w3.org/2000/svg" width="100%" height="auto" viewBox="0 0 460 717.456" version="1.1">
	<path d="M 143.219 1.77 C 106.915 7.054, 75.447 22.813, 49.24 48.836 C 22.521 75.367, 5.794 107.78, 1.734 140.893 C 0 155.037, 0.447 177.79, 2.715 190.856 C 7.8 220.141, 22.609 251.716, 43.133 277.034 C 59.873 297.686, 85.436 320.65, 110.886 337.9 L 118.589 343.12 118.05 373.461 C 117.754 390.149, 117.407 457.938, 117.28 524.105 L 117.047 644.407 119.211 652.459 C 126.387 679.144, 145.344 701.335, 169.2 710.97 C 180.373 715.484, 192.768 717.456, 206.16 716.853 C 219.988 716.229, 228.746 714.038, 240.632 708.227 C 261.408 698.067, 278.135 677.299, 283.853 654.565 C 287.126 641.554, 287.737 628.802, 288.303 561.73 C 288.604 526.06, 289.135 481.905, 289.482 463.608 L 290.114 430.34 286.257 429.72 C 279.318 428.604, 260.826 422.134, 250.545 417.224 C 217.096 401.249, 199.08 381.843, 191.061 353.15 C 188.476 343.899, 188.337 342.323, 188.34 322.115 C 188.342 305.218, 188.716 299.092, 190.155 292.411 C 197.318 259.149, 211.135 230.058, 232.573 203.103 C 241.554 191.811, 259.596 174.66, 271.175 166.409 C 300.154 145.76, 334.422 136.038, 363.016 140.351 C 368.69 141.206, 373.533 141.705, 373.778 141.46 C 374.797 140.442, 359.784 111.83, 352.454 100.818 C 337.278 78.023, 321.245 61.094, 299.237 44.627 C 267.232 20.68, 229.49 5.513, 191.594 1.37 C 179.06 0, 153.958 0.207, 143.219 1.77 M 334.879 148.435 C 302.295 154.185, 269.711 174.093, 244.397 203.718 C 211.601 242.099, 194.446 286.392, 196.047 328.551 C 197.278 360.946, 208.961 382.189, 235.153 399.657 C 249.733 409.38, 274.998 419.338, 293.788 422.767 C 306.708 425.125, 329.084 425.121, 340.324 422.76 C 375.708 415.325, 406.467 393.352, 428.621 359.683 C 452.044 324.088, 460 282.59, 450.755 244.231 C 441.131 204.294, 413.317 167.584, 381.346 152.624 C 369.691 147.169, 351.399 145.52, 334.879 148.435" stroke="none" fill="black" fill-rule="evenodd"/>
</svg>
